# xmcd CD database file
#
# Track frame offsets:
#	150
#	29359
#	57398
#	73933
#	93116
#	114237
#	136592
#	153292
#	171962
#	192499
#	207741
#	236483
#	253439
#	280206
#
# Disc length: 3964 seconds
#
# Revision: 0
# Processed by: cddbd v1.5.1PL2 Copyright (c) Steve Scherf et al.
# Submitted via: CDex 1.51
#
DISCID=ce0f7a0e
DTITLE=Blues Festival Lucerne - 2005 Part 1
DYEAR=2005
DGENRE=Blues
TTITLE0=The Phillip Walker Big Band Blues Show - On My Way
TTITLE1=David Maxwell and The James Cotton Quartet - Thanks for All The Women
TTITLE2=Billy Boy Arnold an The all Star Band - Come Here Baby
TTITLE3=Ronnie Baker Brooks - Take me Witcha
TTITLE4=Charlie Musselwhite - My Road Lies In Darkness
TTITLE5=Jonnie Bassett and Detroit R'n'R - I Gave My Live To The Blues
TTITLE6=Lil'Ed and the Blues Imperials - I Love My Baby
TTITLE7=Nappy Brown and Bob Margolin's all Star Blues Jam - Sittin'On The Dark
TTITLE8=Diamond Jim Green - If You Go
TTITLE9=Kames Wheeler and Billy Boy Arnold - Sweet Than
TTITLE10=Joe Weaver and Detroit R'n'R - I Found A Love
TTITLE11=The Carter Brothers - Don't Pity Me
TTITLE12=Darrell Nulisch and James Cotton Quartet - There Goes That Train
TTITLE13=Mark Kaz Kazanoff and Bob Margolin - She Said
EXTD=YEAR: 2005
EXTT0=
EXTT1=
EXTT2=
EXTT3=
EXTT4=
EXTT5=
EXTT6=
EXTT7=
EXTT8=
EXTT9=
EXTT10=
EXTT11=
EXTT12=
EXTT13=
PLAYORDER=
